<?xml version="1.0" encoding="utf-8"?>
<!-- Generator: Adobe Illustrator 19.0.0, SVG Export Plug-In . SVG Version: 6.00 Build 0)  -->
<svg version="1.1" id="Layer_1" xmlns="http://www.w3.org/2000/svg" xmlns:xlink="http://www.w3.org/1999/xlink" x="0px" y="0px"
	 viewBox="0 0 300 300" style="enable-background:new 0 0 300 300;" xml:space="preserve">
<style type="text/css">
	.st0{fill-rule:evenodd;clip-rule:evenodd;fill:#FFFFFF;}
</style>
<g id="XMLID_268_">
	<g id="XMLID_81_">
		<path id="XMLID_82_" class="st0" d="M146.5,28.7c-65,0-117.8,52.7-117.8,117.8s52.7,117.8,117.8,117.8s117.8-52.7,117.8-117.8
			S211.5,28.7,146.5,28.7z M154.6,248v-19.5c0-4.3-3.5-7.8-7.8-7.8c-4.3,0-7.8,3.5-7.8,7.8v19.8c-50.2-2.9-90.4-43.1-93.3-93.3h21.3
			c4.3,0,7.8-3.5,7.8-7.8s-3.5-7.8-7.8-7.8h-21c4.8-48.3,44.2-86.5,93-89.3v16.8c0,4.3,3.5,7.8,7.8,7.8c4.3,0,7.8-3.5,7.8-7.8V50.4
			c47,4.6,84.3,42,89,89h-17.5c-4.3,0-7.8,3.5-7.8,7.8s3.5,7.8,7.8,7.8h17.8C241,203.9,202.9,243.3,154.6,248z M147.5,7.9
			C69.9,7.9,7,70.8,7,148.4s62.9,140.5,140.5,140.5S288,226,288,148.4S225.1,7.9,147.5,7.9z M147.5,282.6
			c-74.1,0-134.2-60.1-134.2-134.2S73.4,14.3,147.5,14.3s134.2,60.1,134.2,134.2S221.6,282.6,147.5,282.6z M142.4,112.1v28.9
			l-12.1-11.7l-5.6,5.1l15.7,15.2l-15.7,15.7l5.6,4l12.1-10.8v28.5l25.8-22.2L152,148.9l16.2-13.6L142.4,112.1z M157.1,163.6
			l-7.1,6.6V157L157.1,163.6z M150,140.4v-13.1l7.1,6.6L150,140.4z M117.2,126.7l5.1-4L88.4,93.9L117.2,126.7z"/>
	</g>
</g>
</svg>
