<?xml version="1.0" encoding="utf-8"?>
<!-- Generator: Adobe Illustrator 19.0.0, SVG Export Plug-In . SVG Version: 6.00 Build 0)  -->
<svg version="1.1" id="Layer_1" xmlns="http://www.w3.org/2000/svg" xmlns:xlink="http://www.w3.org/1999/xlink" x="0px" y="0px"
	 viewBox="0 0 800 100" style="enable-background:new 0 0 800 100;" xml:space="preserve">
<style type="text/css">
	.st0{fill-rule:evenodd;clip-rule:evenodd;fill:#FFFFFF;}
	.st1{fill-rule:evenodd;clip-rule:evenodd;fill:#EA2527;}
</style>
<g id="XMLID_5_">
	<g id="XMLID_144_">
		<path id="XMLID_145_" class="st0" d="M73.2,38.6h17.8v45.1h25.8V38.6h17.9V16.5H73.2V38.6z M198.7,84.1h54.8V66.3h-29.1v-7.3h29.1
			V43.3h-29.1v-7.3h29.1V16.5h-54.8V84.1z M284.6,16.4h-26v67.8h52.6V62.3h-26.6V16.4z M139,84h54.8V66.2h-29.1v-7.3h29.1V43.2
			h-29.1v-7.3h29.1V16.4H139V84z M528.3,16.4l0.4,37.9l-14.3-37.9h-30.1V84l24.2-0.1l-1.1-40l17.5,39.8l26.4-0.1l0.4-67.1H528.3z
			 M368.6,16.1l-10.8,35l-10.5-34.7h-32.6v67.4l23.3,0.1l-0.7-40.4l13.5,40.5h13.5l13.9-41l-0.8,40.8l23.1,0.1l-0.1-67.8H368.6z
			 M423.2,16.4l-19,67.4h26l2.4-10.1H452l2.2,10.1l26.4,0.1l-18.4-67.5H423.2z M435.7,56.4l6.5-28.8l6.3,28.8H435.7z M64.3,47.6
			c-4.2-2.9-11.8-3.1-11.8-3.1l-10.6-0.3c0,0-5.4,0.1-5.4-4.3c0-3.7,4.7-4.2,4.7-4.2s5.4-0.2,11.4,0c7.4,0.3,15.6,1.1,15.6,1.1v-20
			c0,0-9.7-1.2-18.7-1.7c-7.7-0.4-15.1-0.1-15.1-0.1s-7.9,0.3-13.3,3.1c-5.4,2.8-8.2,8.2-8.2,8.2s-1.3,3.2-1.6,6.9
			c-0.5,6-0.5,16.2,4.8,21.1c4,3.7,11.3,4.6,11.3,4.6h13c0,0,4.7-0.5,4.7,4.6c0,4.4-4.7,4.3-4.7,4.3s-5.1,0.2-10.9,0
			c-7.2-0.2-15.5-1.2-15.5-1.2v16.8c0,0,7.8,1.4,16.1,1.9c9,0.5,18.6,0.1,18.6,0.1s8.4-0.2,13.6-3.4c5-3,6.7-8.9,6.7-8.9
			s1.2-3.7,1.3-7.8c0.2-4.4-0.5-9.3-0.5-9.3S69.3,51,64.3,47.6z"/>
	</g>
</g>
<g id="XMLID_101_">
	<g id="XMLID_81_">
		<path id="XMLID_82_" class="st1" d="M716.1,14.8h-51.2l-1.1,10.6h8.5l-10.7,47.9h11.7l9.6-47.9h28.8l-3.2,10.6l-2.1,3.2h-21.3
			l18.1,34.1H714l-11.7-24.5h8.5c0,0,3.5-0.8,5.3-2.1c1.9-1.3,2.1-3.2,2.1-3.2l4.3-19.2c0,0,0.3-3.2-1.1-5.3
			C720.1,17,716.1,14.8,716.1,14.8z M772.7,14.8h-28.8c-5.9,0-10.7,4.8-10.7,10.6l-7.5,37.3c0,5.9,4.8,10.6,10.7,10.6h28.8
			c5.9,0,10.7-4.8,10.7-10.6l7.5-37.3C783.4,19.6,778.6,14.8,772.7,14.8z M764.2,60.6c0,1.2-1,2.1-2.1,2.1h-22.4
			c-1.2,0-2.1-1-2.1-2.1l6.4-34.1c0-1.2,1-2.1,2.1-2.1h23.5c1.2,0,2.1,1,2.1,2.1L764.2,60.6z M647.8,14.8h-53.4l-2.1,10.6h11.7
			L590.2,100h10.7l12.8-74.5h27.7c0,0,1.3,0.2,2.1,1.1c0.7,0.7,1.1,2.1,1.1,2.1l-6.4,33c0,0-0.3,0.3-1.1,1.1
			c-0.9,0.9-2.1,1.1-2.1,1.1h-21.3l-1.1,9.6h26.7c0,0,4.2-1,6.4-3.2c2.1-2.1,2.1-5.3,2.1-5.3l7.5-37.3c0,0,0.7-5.5-1.1-8.5
			C652.3,15.8,647.8,14.8,647.8,14.8z"/>
	</g>
</g>
<g id="XMLID_125_">
	<g id="XMLID_39_">
		<path id="XMLID_40_" class="st0" d="M558.5,16.9h3.2v8.5h2.2v-8.5h3.1v-2h-8.5V16.9z M575.3,15l-1.9,7l-1.9-7h-3.2v10.4h1.9v-8.2
			l2.3,8.2h1.7l2.4-7.8v7.8h1.9V15H575.3z"/>
	</g>
</g>
</svg>
