<?xml version="1.0" encoding="utf-8"?>
<!-- Generator: Adobe Illustrator 19.0.0, SVG Export Plug-In . SVG Version: 6.00 Build 0)  -->
<svg version="1.1" id="Layer_1" xmlns="http://www.w3.org/2000/svg" xmlns:xlink="http://www.w3.org/1999/xlink" x="0px" y="0px"
	 viewBox="0 0 300 300" style="enable-background:new 0 0 300 300;" xml:space="preserve">
<style type="text/css">
	.st0{fill-rule:evenodd;clip-rule:evenodd;fill:#FFFFFF;}
</style>
<g id="XMLID_669_">
	<g id="XMLID_565_">
		<path id="XMLID_566_" class="st0" d="M100.9,197l-9.3-3.1l9.4,3c0.1-0.4,0.3-0.8,0.5-1.2l-11.5-4.7c-0.6,1.5-1.1,3-1.6,4.5l12,3.5
			C100.4,198.3,100.6,197.6,100.9,197z M87.2,201.4l11.8,2.4c0.1-0.7,0.3-1.4,0.5-2.1l-12.1-3.1c-0.4,1.7-0.8,3.4-1,5.1h4.1
			L87.2,201.4z M102.8,192.3l0.1-0.6l-10.8-6.1c-0.6,1.2-1.2,2.4-1.7,3.7l11.7,4.5C102.3,193.3,102.5,192.8,102.8,192.3z M98,213.4
			c0-0.2,0-0.4,0-0.6l-11.9-0.5l4.9-1.1l-5.3-1.2c-0.1,1.1-0.1,2.3-0.1,3.4c0,0.7,0,1.4,0.1,2l12.4-0.9
			C98.1,214.1,98,213.7,98,213.4z M98.4,207.3l-12.3-1.8c-0.2,1.2-0.3,2.4-0.4,3.6l12.4,0.9C98.2,209.1,98.3,208.2,98.4,207.3z
			 M104.3,189.4l-10.8-6.3c-0.2,0.4-0.5,0.8-0.7,1.2l10.9,6.1C103.9,190.1,104.1,189.7,104.3,189.4z M107.5,184.3l-4.6-4.6l4.9,3.8
			V183l-8.5-8.5c-0.6,0.8-1.3,1.6-1.9,2.4L107.5,184.3C107.5,184.4,107.5,184.4,107.5,184.3z M105.9,186.6l-10-6.3l4.3,1.1l-3.8-3
			c-0.9,1.3-1.8,2.7-2.6,4.1l10.8,6.3C105.1,188,105.5,187.3,105.9,186.6z M98.3,218.2l-12.5,0.5c0.1,1.2,0.2,2.4,0.4,3.5l12.3-1.8
			C98.5,219.7,98.4,219,98.3,218.2z M99.4,224.8l-12.3,2.3c0.4,1.6,0.8,3.2,1.3,4.7l11.9-3.7C100,227,99.7,225.9,99.4,224.8z
			 M101.3,230.9c-0.2-0.6-0.4-1.1-0.6-1.7L88.5,232c0.5,1.6,1.1,3.1,1.7,4.6l3-2.2L101.3,230.9z M99.1,223.7c-0.1-0.5-0.2-1-0.3-1.6
			l-12.2,2.4c0.1,0.6,0.2,1.1,0.3,1.7l12.2-2V223.7z M115.1,250.6l-8.4,9.2c1.3,1.1,2.6,2.2,3.9,3.2l6.9-10.4
			C116.7,252,115.9,251.3,115.1,250.6z M101.4,172.1c-0.3,0.3-0.6,0.7-0.9,1c1.4,1.1,3,2.3,3,2.3L101.4,172.1z M111.2,246.8l-9,8.6
			c0.9,1,1.9,1.9,2.8,2.9l8.4-9.2C112.6,248.3,111.9,247.6,111.2,246.8z M98.1,215.6l-12.4,0.9c0,0.4,0.1,0.8,0.1,1.2l12.5-0.4
			C98.2,216.7,98.1,216.1,98.1,215.6z M109.1,244.5l-0.8-0.8l-9.2,6l8.1-7V242c-0.1-0.1-0.2-0.2-0.2-0.3l-10.3,7
			c1.1,1.6,2.3,3.2,3.6,4.7l9.1-8.6C109.3,244.7,109.2,244.6,109.1,244.5z M151.2,155.9l1-4.1c-1.2-0.1-2.5-0.2-3.7-0.2v12.5
			c0.6,0,1.2,0,1.8,0.1L151.2,155.9z M159.7,152.8l-0.4,4.2l2.6-3.7C161.2,153.1,160.4,153,159.7,152.8z M164.2,167
			c0.6,0.2,1.2,0.5,1.8,0.7l4.1-9.6l-3.4,9.9c0.4,0.2,0.7,0.3,1,0.5l4.7-11.5c-1.6-0.7-3.2-1.4-4.9-1.9c0.2,1.1,0.4,3.1,0.4,3.1
			L164.2,167z M165.3,154.2c-1.1-0.3-2.2-0.6-3.3-0.9l-3,12.1c0.9,0.2,1.7,0.4,2.5,0.7L165.3,154.2z M158.9,152.7
			c-1.4-0.3-2.8-0.5-4.2-0.6l-1.8,12.3c1.2,0.1,2.3,0.3,3.4,0.5L158.9,152.7z M147.4,164v-12.5c-1.4,0-2.8,0.1-4.2,0.2l0.8,12.4
			C145.1,164.1,146.2,164,147.4,164z M184.2,180.6l9.4-8.1c-0.8-0.9-1.7-1.8-2.5-2.7l-8.6,9C183,179.3,183.6,179.9,184.2,180.6z
			 M180.3,176.6c2.7-2.8,8.3-8.4,8.3-8.3c0,0.2-1.6,3.8-1.6,3.8l3.3-3.3c-1.3-1.3-2.8-2.5-4.2-3.7l-7.9,9.6
			C178.8,175.4,179.6,176,180.3,176.6z M173.4,171.5l6.4-9.6l-5.4,10.3c0.5,0.4,1.1,0.7,1.6,1.1l7.5-9.9c-1.5-1.1-3.1-2.1-4.7-3.1
			l-6.2,10.8C173,171.2,173.2,171.4,173.4,171.5z M171.3,170.2l6.4-10.7c-1-0.6-2-1.1-3.1-1.6L169,169
			C169.8,169.4,170.5,169.8,171.3,170.2z M116.2,175.1l-7.1-10.2c-1,0.8-2,1.6-3,2.5l8.6,9C115.2,176,115.7,175.5,116.2,175.1z
			 M120.4,172l-5.9-11c-1,0.6-1.9,1.3-2.9,1.9l7.1,10.2C119.3,172.8,119.9,172.4,120.4,172z M143,164.2l-0.4-12.5
			c-0.5,0-1.1,0.1-1.6,0.1l0.9,12.5C142.2,164.3,142.6,164.3,143,164.2z M125.3,169.2l-3.5-7.9l-0.6-4c-1.7,0.8-3.3,1.6-4.8,2.5
			l6.3,10.8C123.6,170.2,124.5,169.7,125.3,169.2z M112.5,178.5l-8.4-9.2c-0.9,0.8-1.7,1.7-2.5,2.6l9.3,8.3
			C111.4,179.6,112,179,112.5,178.5z M117.8,173.9l-7.4-10c-0.3,0.2-0.5,0.4-0.8,0.6l7.6,9.9C117.4,174.2,117.6,174.1,117.8,173.9z
			 M136.2,165.3l-2.4-12.2c-1.4,0.3-2.8,0.7-4.2,1.1l3.9,11.8C134.4,165.8,135.3,165.5,136.2,165.3z M130.5,167l-3.7-11.9
			c-1.2,0.4-2.3,0.8-3.4,1.3l5,11.4C129.1,167.5,129.8,167.3,130.5,167z M140.7,164.5l-0.8-12.5c-1.4,0.2-2.7,0.4-4,0.6l2.6,12.2
			C139.3,164.7,140,164.6,140.7,164.5z M129.5,154.2c-0.5,0.2-1,0.3-1.5,0.5l1.5,3.4V154.2z M104.5,238.8l-10.3,6l2.7-3.3l-3.8,1.1
			l10.3-6l-0.9-2.6c-0.1-0.2-0.2-0.4-0.3-0.6l-11.4,5c1.5,3.3,3.2,6.4,5.1,9.3l10.1-6.8L104.5,238.8z M196.6,216.4l12.4,1.7
			c0.1-1.6,0.2-3.1,0.2-4.7l-12.5,0.4C196.7,214.7,196.6,215.6,196.6,216.4z M196.1,221l12,3.4c0.3-1.6,0.5-3.1,0.7-4.7l-12.4-1.3
			C196.3,219.3,196.2,220.1,196.1,221z M196.7,213.3l12.5-0.4c0-0.5,0-1.1,0-1.6l-12.5,0.4C196.6,212.2,196.7,212.7,196.7,213.3z
			 M196.6,210.5l12.4-0.9c-0.1-1.4-0.2-2.8-0.4-4.2l-12.3,2.2C196.4,208.6,196.5,209.5,196.6,210.5z M194.7,227.2l10.6,3l-4.3-0.5
			l5,3.2c0.6-1.8,1.1-3.7,1.6-5.6l-12.1-2.9C195.2,225.3,195,226.2,194.7,227.2z M202.6,240.5l-10.8-5.9c-0.4,0.9-0.9,1.7-1.3,2.6
			l10.8,6.3c0.8-1.4,1.5-2.8,2.1-4.2l-5.7-2.6L202.6,240.5z M189.2,239.5l10.2,7.2c0.4-0.6,0.8-1.2,1.1-1.8l-10.6-6.5
			C189.6,238.7,189.4,239.1,189.2,239.5z M196.1,205.9l12.3-2.2c-0.2-1.3-0.4-2.5-0.7-3.7l-12.2,2.7
			C195.7,203.8,195.9,204.8,196.1,205.9z M192.4,233.4l11.2,5.4c0.7-1.6,1.4-3.2,1.9-4.8l-11.7-4.2
			C193.4,231,192.9,232.2,192.4,233.4z M190.6,189.6l11.3-5.3c-0.7-1.3-1.4-2.6-2.2-3.8l-10.5,6.7
			C189.7,188.1,190.2,188.8,190.6,189.6z M147.9,135.3c-43.1,0-78,34.9-78,78c0,43.1,34.9,78,78,78s78-34.9,78-78
			C225.9,170.3,191,135.3,147.9,135.3z M147.9,278.7c-36.1,0-65.3-29.2-65.3-65.3c0-36.1,29.2-65.3,65.3-65.3s65.3,29.2,65.3,65.3
			C213.2,249.4,184,278.7,147.9,278.7z M147.9,48.1c-69.6,0-108.4,45-108.4,45l11.9,12.5c0,0,31.7-40.1,98.1-40.1
			c60.1,0,94.3,40.6,94.3,40.6l14.1-13C257.9,93.1,213.8,48.1,147.9,48.1z M147.9,8C58.7,8,10.3,64.9,10.3,64.9l11.9,11.9
			c0,0,46.9-52,125.4-52c80.6,0,124.9,52,124.9,52L285,64.9C285,64.9,235.8,8,147.9,8z M187.8,185.1L198,178
			c-0.9-1.3-1.9-2.6-2.9-3.9l-9.4,8.2C186.4,183.2,187.1,184.2,187.8,185.1z M119.5,254l-7.2,10.2c0.9,0.6,1.8,1.2,2.7,1.8l6.2-10.8
			C120.6,254.8,120,254.4,119.5,254z M194.6,199.3l11.3-2.7l-4.3,2.7l5.8-0.5c-0.5-2-1.1-4-1.8-6l-11.5,4.8
			C194.3,198.1,194.4,198.7,194.6,199.3z M187.6,241.8l9.8,7.7c0.5-0.7,1-1.5,1.5-2.2l-10-7.4C188.5,240.6,188.1,241.2,187.6,241.8z
			 M188.6,186.4l10.4-6.8c-0.3-0.4-0.5-0.8-0.8-1.2l-10.3,7C188.2,185.7,188.4,186.1,188.6,186.4z M192.9,194.5l11.8-3.9
			c-0.6-1.6-1.3-3.2-2.1-4.7l-11.3,5.3C191.9,192.3,192.5,193.4,192.9,194.5z M134.1,260.8l-3.8,11.9c1.4,0.4,2.8,0.8,4.2,1.1
			l3-12.1C136.3,261.4,135.2,261.2,134.1,260.8z M148,262.7l0.8,12.4c0.5,0,1.1,0,1.6,0l-0.8-12.4
			C149.1,262.6,148.6,262.6,148,262.7z M147.4,262.7c-1.1,0-2.2-0.1-3.3-0.1l-0.8,12.4c1.4,0.1,2.8,0.2,4.2,0.2c0.2,0,0.3,0,0.5,0
			L147.4,262.7C147.4,262.7,147.4,262.7,147.4,262.7z M191.8,213.6c0-24.7-20-44.7-44.7-44.7c-24.7,0-44.7,20-44.7,44.7
			s20,44.7,44.7,44.7C171.8,258.3,191.8,238.3,191.8,213.6z M147.1,247c-18.4,0-33.3-14.9-33.3-33.3s14.9-33.3,33.3-33.3
			s33.3,14.9,33.3,33.3S165.5,247,147.1,247z M137.4,274.3c1.5,0.3,3.1,0.4,4.7,0.6l0.9-12.4c-1.2-0.1-2.3-0.2-3.4-0.4L137.4,274.3z
			 M118.6,263.8l4.5-7.5c-0.3-0.2-0.7-0.4-1-0.6l-6.3,10.8c0.6,0.4,1.2,0.7,1.8,1l1.1-2.1V263.8z M124.2,256.9l-5.9,11
			c1,0.6,2.1,1.1,3.2,1.6l5.2-11.3C125.8,257.7,125,257.3,124.2,256.9z M130,259.5c-0.9,1.9-2.8,5.8-3.5,7.3
			c-0.2,0.5-0.3,0.8-0.3,0.7c0-0.1,0.1-0.3,0.3-0.7c0.6-1.7,2.1-5.8,2.7-7.7c-0.5-0.2-0.9-0.4-1.4-0.6l-4.7,11.5
			c1.6,0.7,3.2,1.3,4.9,1.8l4.1-11.8C131.4,260,130.7,259.8,130,259.5z M168.8,257.8l4.1,8.1l-5.2-7.6c-0.5,0.2-1,0.5-1.6,0.7
			l5.1,11.4c1.5-0.6,3-1.3,4.5-2.1l-6.1-10.9C169.3,257.5,169,257.7,168.8,257.8z M174.8,254.3l5.1,8.3l-2.7-2.7l4,5.1
			c0.5-0.3,0.9-0.6,1.4-0.9l-7.1-10.2C175.3,254,175,254.2,174.8,254.3z M176,253.5l7.3,10.1c0.9-0.7,1.8-1.3,2.7-2l-7.9-9.6
			C177.4,252.5,176.7,253,176,253.5z M150.7,262.5l0.4,12.5c1.2-0.1,2.4-0.2,3.5-0.3l-1.6-12.4C152.2,262.4,151.5,262.5,150.7,262.5
			z M171.8,256.2l5.9,11c1-0.6,1.9-1.1,2.9-1.7l-7.1-10.2C172.9,255.5,172.4,255.8,171.8,256.2z M179.9,250.4l8.1,8.5l-4.9-3.8
			l4.1,5.5c1.4-1.2,2.8-2.5,4.1-3.8l-8.8-8.8C181.7,248.8,180.8,249.6,179.9,250.4z M155.2,262l1.6,12.4c1.7-0.3,3.4-0.6,5.1-1
			l-3.7-11.9C157.3,261.7,156.3,261.9,155.2,262z M184.3,246l9,8.6c0.8-0.9,1.6-1.8,2.3-2.8l-10-7.5
			C185.3,244.9,184.8,245.4,184.3,246z M160.7,260.8l4.1,11.8c1.3-0.4,2.6-0.8,3.8-1.2l-4.9-11.5
			C162.7,260.2,161.7,260.5,160.7,260.8z M145.7,88.7c-44.1,0-78,33.6-78,33.6l13,12.5c0,0,21.7-28.2,66.7-28.2
			c46.2,0,68.8,28.7,68.8,28.7l11.4-13.5C227.6,121.8,195.6,88.7,145.7,88.7z"/>
	</g>
</g>
</svg>
