<?xml version="1.0" encoding="utf-8"?>
<!-- Generator: Adobe Illustrator 19.0.0, SVG Export Plug-In . SVG Version: 6.00 Build 0)  -->
<svg version="1.1" id="Layer_1" xmlns="http://www.w3.org/2000/svg" xmlns:xlink="http://www.w3.org/1999/xlink" x="0px" y="0px"
	 viewBox="0 0 300 300" style="enable-background:new 0 0 300 300;" xml:space="preserve">
<style type="text/css">
	.st0{fill:#5088C1;}
	.st1{fill-rule:evenodd;clip-rule:evenodd;fill:#FFFFFF;}
</style>
<g id="XMLID_21_">
	<g id="XMLID_34_">
		<path id="XMLID_35_" class="st0" d="M151.7,180.9c-13.4,0-24.3,10.9-24.3,24.3c0,13.4,10.9,24.3,24.3,24.3
			c13.4,0,24.3-10.9,24.3-24.3C176.1,191.8,165.2,180.9,151.7,180.9z M229.5,131.9c-0.5-0.5-1-0.9-1.5-1.4l-1.5-1.4
			c-0.3-0.3-0.5-0.4-0.8-0.7c-42.5-38.5-107.6-37-148.2,3.5l-4.8,4.8l-6.6,6.6c-8,8-8,21.1,0.1,29.1c8.1,8,21.1,8.1,29.1,0.1
			l11.4-11.3c25.8-25.7,67.8-25.7,93.6,0l8.2,7.9c7.9,7.9,20.9,7.9,28.9-0.1c3.9-3.8,6-9,6-14.4c0-5.4-2.1-10.5-6-14.4L229.5,131.9z
			 M287,74.9l-6.8-6.8c0,0,0-0.1-0.1-0.1l-5.4-5.4c-1-0.9-2-1.7-3.1-2.4C202.3-0.6,96.9,1.3,29.8,65.7c-0.3,0.3-0.7,0.5-1,0.8
			L16.5,78.9c-7.3,7.3-7.3,19.2,0.1,26.5c7.3,7.3,19.2,7.4,26.6,0.1l12.3-12.3c0.1-0.1,0.1-0.2,0.2-0.3
			c54.3-52.3,140.3-52.6,195-1.1l9.7,9.7c7.3,7.3,19.2,7.3,26.6-0.1C294.3,94.1,294.3,82.2,287,74.9z"/>
	</g>
</g>
<g id="XMLID_470_">
	<g id="XMLID_142_">
		<path id="XMLID_143_" class="st1" d="M83.1,194.6c3.7,4.7,9.4,7.7,15.9,7.7c11.2,0,20.2-9.1,20.2-20.2v-53.6
			c0-11.2-9.1-20.2-20.2-20.2c-6.4,0-12.2,3-15.9,7.7c-6.7,0.4-12.9,2.4-18.3,5.7c9.3-39.4,44.7-68.6,86.9-68.6
			c42,0,77.1,28.9,86.8,67.9c-5.1-2.9-10.9-4.6-17-5c-3.7-4.7-9.4-7.7-15.9-7.7c-11.2,0-20.2,9.1-20.2,20.2v53.6
			c0,11.2,9.1,20.2,20.2,20.2c6.4,0,12.2-3,15.9-7.7c20.7-1.1,37.1-18.3,37.1-39.3c0-8.2-2.5-15.9-6.9-22.2c0.2-2.4,0.3-4.9,0.3-7.3
			c0-54-44.7-97.8-99.7-97.8s-99.7,43.8-99.7,97.8c0,2.5,0.1,4.9,0.3,7.3c-4.3,6.3-6.9,14-6.9,22.2C46,176.3,62.4,193.4,83.1,194.6z
			 M93,127.4c0-3.3,2.7-6,6-6c3.3,0,6,2.7,6,6v54.7c0,3.3-2.7,6-6,6c-3.3,0-6-2.7-6-6V127.4z M211.6,183.2c0,3.3-2.7,6-6,6
			c-3.3,0-6-2.7-6-6v-54.7c0-3.3,2.7-6,6-6c3.3,0,6,2.7,6,6V183.2z M245.8,155.3c0,12.4-8.5,22.8-19.9,25.7v-51.4
			C237.3,132.5,245.8,142.9,245.8,155.3z M78.8,129.6V181c-11.5-2.9-19.9-13.3-19.9-25.7S67.3,132.5,78.8,129.6z M104.2,236.7
			c-6.2,0-11.3,5-11.3,11.3v16c0,6.2,5.1,11.3,11.3,11.3c6.2,0,11.3-5,11.3-11.3v-4.7h-10.1v8c0,0.8-0.7,1.5-1.5,1.5
			s-1.5-0.7-1.5-1.5v-22.5c0-0.8,0.7-1.5,1.5-1.5s1.5,0.7,1.5,1.5v9.2h10.1V248C115.5,241.8,110.4,236.7,104.2,236.7z M244.5,238.5
			h-16c-3.3,0-5.9,2.7-5.9,5.9l-4.2,20.7c0,3.3,2.7,5.9,5.9,5.9h16c3.3,0,5.9-2.7,5.9-5.9l4.2-20.7
			C250.4,241.2,247.7,238.5,244.5,238.5z M239.7,264c0,0.7-0.5,1.2-1.2,1.2H226c-0.7,0-1.2-0.5-1.2-1.2l3.6-19
			c0-0.7,0.5-1.2,1.2-1.2h13.1c0.7,0,1.2,0.5,1.2,1.2L239.7,264z M213,238.5h-28.5l-0.6,5.9h4.8l-5.9,26.7h6.5l5.3-26.7h16l-1.8,5.9
			l-1.2,1.8h-11.9l10.1,19h5.9l-6.5-13.6h4.8c0,0,1.9-0.4,3-1.2c1-0.7,1.2-1.8,1.2-1.8l2.4-10.7c0,0,0.2-1.8-0.6-3
			C215.2,239.7,213,238.5,213,238.5z M174.9,238.5h-29.7l-1.2,5.9h6.5l-7.7,41.5h5.9l7.1-41.5h15.5c0,0,0.7,0.1,1.2,0.6
			c0.4,0.4,0.6,1.2,0.6,1.2l-3.6,18.4c0,0-0.2,0.2-0.6,0.6c-0.5,0.5-1.2,0.6-1.2,0.6h-11.9l-0.6,5.3h14.9c0,0,2.4-0.6,3.6-1.8
			c1.2-1.2,1.2-3,1.2-3l4.2-20.7c0,0,0.4-3.1-0.6-4.7C177.4,239,174.9,238.5,174.9,238.5z M159.1,138.9h-24.6c-3,0-5.5,2.4-5.5,5.5
			v24.6c0,3,2.4,5.5,5.5,5.5h24.6c3,0,5.5-2.4,5.5-5.5v-3.3l8.7,8.7V140l-8.7,8.7v-4.4C164.6,141.3,162.1,138.9,159.1,138.9z
			 M159.7,166.8c0,1.5-1.2,2.7-2.7,2.7h-20.2c-1.5,0-2.7-1.2-2.7-2.7v-19.7c0-1.5,1.2-2.7,2.7-2.7h20.2c1.5,0,2.7,1.2,2.7,2.7V166.8
			z M168.4,152v9.3l-3.8-3.3v-2.7L168.4,152z M127.9,258.6h5.9v-7.1h-5.9V245h6.5v-7.1h-16v36.2h16.6v-7.1h-7.1V258.6z M79.8,261.6
			l-2.4-23.7H67.3l-3,22.5l-1.2-22.5h-9.5l4.2,36.2h11.9l3-16.6l2.4,16.6h12.5l3.6-36.2h-8.9L79.8,261.6z"/>
	</g>
</g>
</svg>
